<svg width="512" height="512" xmlns="http://www.w3.org/2000/svg" version="1.1" fill="#000000" stroke="#000000" stroke-width="0.00512">
 <g>
  <title>Layer 1</title>
  <g stroke-width="0" id="svg_6">
   <g id="SVGRepo_bgCarrier" stroke-width="0"/>
   <g id="SVGRepo_tracerCarrier" stroke-linecap="round" stroke-linejoin="round" stroke="#CCCCCC" stroke-width="7.168"/>
   <path class="st0" d="m262.22895,362.09259c-12.65951,-2.57855 -22.44515,-12.56262 -30.53933,-20.81115c-4.27892,-4.34003 -10.13366,-10.31302 -13.15344,-11.18079c-0.39341,-0.12734 -1.11972,-0.25231 -2.38643,-0.25231c-3.97738,0 -9.59218,1.40777 -15.02216,2.75423c-7.13658,1.78624 -14.53579,3.63143 -22.08956,3.63143c-7.12145,0 -13.40851,-1.7096 -18.76932,-5.08046c-1.69147,-1.07882 -3.25972,-2.27436 -4.6799,-3.54654l-54.62082,128.68342l67.88991,-2.21541l42.35689,57.92599l57.30879,-135.05257l6.31841,-14.85466c-2.03084,0.4386 -4.1395,0.66498 -6.31841,0.66498c-2.17026,-0.00118 -4.27892,-0.22755 -6.29463,-0.66615l0,-0.00001z" fill="#ffffff" id="svg_2" stroke="null"/>
   <path class="st0" d="m352.44471,338.97963c-5.29704,3.24823 -11.54155,4.88363 -18.54873,4.88363c0,0 0,0 -0.0235,0c-7.4729,0 -14.75567,-1.7651 -21.80771,-3.47381c-5.36647,-1.28914 -10.91561,-2.63468 -14.87744,-2.63468c-1.22198,0 -1.96222,0.12068 -2.35851,0.24136c-2.97698,0.8301 -8.76325,6.54384 -12.96969,10.69549c-1.99106,1.95796 -4.07506,4.01405 -6.26587,6.0363l-21.23624,48.42351l47.71612,108.84857l41.88392,-55.41172l67.09695,2.11925l-54.00549,-123.12952c-1.41319,1.24967 -2.9396,2.36963 -4.6038,3.40162l-0.00001,0z" fill="#ffffff" id="svg_3" stroke="null"/>
   <path class="st0" d="m413.955,227.462c3.852,-14.4 27.177,-26.72 27.177,-42.334c0,-15.607 -23.325,-27.927 -27.177,-42.326c-3.98,-14.9 9.94,-37.225 2.402,-50.259c-7.661,-13.228 -34.016,-12.277 -44.756,-23.018c-10.741,-10.72 -9.784,-37.089 -23.018,-44.756c-13.028,-7.532 -35.36,6.388 -50.252,2.408c-14.379,-3.837 -26.72,-27.177 -42.335,-27.177c-15.586,0 -27.927,23.34 -42.327,27.177c-14.878,3.98 -37.203,-9.94 -50.258,-2.408c-13.206,7.668 -12.278,34.036 -22.997,44.756c-10.733,10.741 -37.11,9.79 -44.756,23.018c-7.553,13.034 6.388,35.359 2.408,50.259c-3.859,14.399 -27.198,26.719 -27.198,42.326c0,15.614 23.339,27.934 27.198,42.334c3.98,14.899 -9.961,37.224 -2.408,50.259c7.646,13.228 34.023,12.27 44.756,23.01c4.938,4.938 7.39,13.17 9.897,21.353c2.123,6.974 4.288,13.92 8.012,18.794c1.429,1.887 3.101,3.466 5.088,4.61c13.034,7.539 35.38,-6.382 50.258,-2.401c9.204,2.45 17.558,12.842 26.456,20.052c5.024,4.066 10.248,7.124 15.871,7.124c5.631,0 10.848,-3.058 15.893,-7.124c8.732,-7.06 16.936,-17.194 25.897,-19.88c0.172,-0.064 0.372,-0.129 0.544,-0.171c14.892,-3.981 37.224,9.94 50.252,2.401c1.993,-1.144 3.688,-2.744 5.116,-4.631c8.096,-10.633 8.789,-31.029 17.901,-40.126c10.74,-10.741 37.096,-9.783 44.756,-23.01c7.54,-13.036 -6.381,-35.361 -2.4,-50.26zm-157.959,81.087c-2.401,0 -4.78,-0.064 -7.139,-0.214c-29.692,-1.686 -56.562,-13.856 -76.957,-32.894c-24.211,-22.539 -39.325,-54.646 -39.325,-90.313c0,-68.16 55.261,-123.421 123.421,-123.421c68.167,0 123.421,55.262 123.421,123.421c0,68.167 -55.254,123.421 -123.421,123.421z" fill="#ffffff" id="svg_5"/>
  </g>
 </g>

</svg>